<svg xmlns="http://www.w3.org/2000/svg" viewBox="0 0 1440 250"><path fill="#00cba9" fill-opacity="1" d="M0,256L24,240C48,224,96,192,144,154.7C192,117,240,75,288,80C336,85,384,139,432,160C480,181,528,171,576,154.7C624,139,672,117,720,101.3C768,85,816,75,864,101.3C912,128,960,192,1008,224C1056,256,1104,256,1152,250.7C1200,245,1248,235,1296,240C1344,245,1392,267,1416,277.3L1440,288L1440,320L1416,320C1392,320,1344,320,1296,320C1248,320,1200,320,1152,320C1104,320,1056,320,1008,320C960,320,912,320,864,320C816,320,768,320,720,320C672,320,624,320,576,320C528,320,480,320,432,320C384,320,336,320,288,320C240,320,192,320,144,320C96,320,48,320,24,320L0,320Z"></path></svg>