<svg xmlns="http://www.w3.org/2000/svg" viewBox="0 0 1440 260">
    <g transform="rotate(180,720,130)">
        <path fill="#ffd700" fill-opacity="0.5" d="M0,224L34.3,213.3C68.6,203,137,181,206,181.3C274.3,181,343,203,411,181.3C480,160,549,96,617,106.7C685.7,117,754,203,823,218.7C891.4,235,960,181,1029,149.3C1097.1,117,1166,107,1234,101.3C1302.9,96,1371,96,1406,96L1440,96L1440,320L1405.7,320C1371.4,320,1303,320,1234,320C1165.7,320,1097,320,1029,320C960,320,891,320,823,320C754.3,320,686,320,617,320C548.6,320,480,320,411,320C342.9,320,274,320,206,320C137.1,320,69,320,34,320L0,320Z"></path>
    </g>
</svg>